Coordinates
version=1
nRows=12
nColumns=33
inDegrees=yes

Units are S.I. units (second, meters, Newtons, ...)
Angles are in degrees.

endheader
time	ground_thorax_rot_x	ground_thorax_rot_y	ground_thorax_rot_z	ground_thorax_tx	ground_thorax_ty	ground_thorax_tz	clav_prot_r	clav_elev_r	scapula_abduction_r	scapula_elevation_r	scapula_upward_rot_r	scapula_winging_r	shoulder_elv_r	plane_of_elev_r	axial_rot_r	elbow_flexion_r	pro_sup_r	wrist_flex_r	wrist_dev_r	clav_prot_l	clav_elev_l	scapula_abduction_l	scapula_elevation_l	scapula_upward_rot_l	scapula_winging_l	shoulder_elv_l	plane_of_elev_l	axial_rot_l	elbow_flexion_l	pro_sup_l	wrist_flex_l	wrist_dev_l
      3.07000000	     -0.89136949	     11.63791558	      3.24382483	     -0.19373700	      0.99785966	      0.00991461	    -14.66513169	    -17.03246269	    -19.42305256	    -10.28032717	      2.66498052	      7.61876108	     46.15595280	    -16.02021717	     29.25029078	     43.02584403	     -9.32064363	     -4.76452011	     14.55945044	      6.50960528	     -9.67112957	    -12.38164636	     -1.99317696	    -11.82248192	      1.25556587	     56.42317307	     -4.32690670	    -12.81768815	     50.19547070	      7.98526273	     24.44876285	      7.02759576
      3.08000000	     -0.88938864	     11.65473966	      3.11269950	     -0.19338178	      0.99797493	      0.00979769	    -14.43566643	    -17.26869488	    -19.04604674	    -10.47405605	      2.60275470	      7.74989805	     45.98679055	    -15.41525216	     28.99725282	     41.44392318	     -8.97060230	     -4.69747973	     14.26944604	      6.83978297	     -9.89942728	    -12.99534148	     -1.73614450	    -11.69616238	      1.43686026	     56.33603649	     -3.59481297	    -12.85557107	     48.26467570	      8.10528882	     24.59732902	      6.85722816
      3.09000000	     -0.90201405	     11.69073577	      3.03572878	     -0.19303127	      0.99801309	      0.00964217	    -14.21697999	    -17.43940246	    -18.68973824	    -10.60707469	      2.54659408	      7.83860229	     45.77039962	    -14.80995888	     28.73714042	     39.87293647	     -8.47953436	     -4.48924538	     13.90386769	      7.19233185	    -10.04346594	    -13.64217390	     -1.55793936	    -11.57385884	      1.66123173	     56.18500026	     -2.81175373	    -12.89973460	     46.25794528	      8.18903395	     24.75786452	      6.51087436
      3.10000000	     -0.95856088	     11.64838353	      3.39558658	     -0.19255365	      0.99844297	      0.00949057	    -13.99745891	    -17.69448065	    -18.36672088	    -10.79379336	      2.40986093	      7.99569447	     45.64185365	    -14.67845826	     28.78691370	     38.51612826	     -8.20886783	     -4.63654811	     13.73060327	      7.42177004	    -10.38243807	    -14.04069656	     -1.26126227	    -11.59374960	      1.70533594	     56.07554624	     -2.60172539	    -13.08091711	     44.55687495	      8.37698713	     24.82263711	      6.61781910
      3.11000000	     -1.01203272	     11.83369859	      3.19498702	     -0.19221792	      0.99805131	      0.00933251	    -13.91278760	    -17.60044989	    -18.25615160	    -10.67911646	      2.35916158	      7.93347229	     45.07543388	    -13.67544821	     27.91828348	     36.77223411	     -6.88964056	     -3.58531378	     12.77541153	      7.89630796	    -10.09338489	    -14.90724037	     -1.44163053	    -11.38712001	      2.18085052	     55.59115385	     -1.16136905	    -12.79022651	     41.98122734	      8.19720731	     25.03614334	      5.16609880
      3.12000000	     -1.07403044	     11.76370753	      3.35413995	     -0.19187025	      0.99841905	      0.00921556	    -13.63718990	    -17.90518313	    -17.79806284	    -10.93667174	      2.29385901	      8.09855377	     45.00089163	    -13.49192383	     28.09878655	     35.52408755	     -6.57410860	     -3.77562612	     12.66727823	      8.17389014	    -10.41927152	    -15.40871087	     -1.12351039	    -11.32378709	      2.28280695	     55.60544812	     -0.92980092	    -13.11766546	     40.33736114	      8.44399736	     25.08983946	      5.32205804
      3.13000000	     -0.98948422	     11.86285179	      2.77333675	     -0.19143914	      0.99841453	      0.00902057	    -13.48751143	    -18.11964498	    -17.49710901	    -11.16003491	      2.35748407	      8.20832965	     44.84783920	    -12.65508922	     27.50921923	     34.12652821	     -5.58379799	     -3.31441705	     11.93311363	      8.54851851	    -10.53551981	    -16.14005108	     -0.89231275	    -11.01169172	      2.57340141	     55.42071385	      0.20444701	    -13.02339109	     38.12605271	      8.48548232	     25.15193820	      4.72877517
      3.14000000	     -1.17832440	     12.07739396	      3.05919629	     -0.19115819	      0.99824052	      0.00892983	    -13.50842168	    -18.02063543	    -17.56543700	    -11.04581614	      2.30538593	      8.15436217	     44.11877547	    -12.08324881	     26.73365383	     32.55626260	     -3.63860899	     -2.35765641	     11.18623030	      9.09135770	    -10.21453988	    -17.08584116	     -1.15455596	    -10.93775166	      3.10280441	     54.91198996	      1.19574345	    -12.81374505	     35.75923789	      8.40922863	     25.25008066	      3.25978488
      3.15000000	     -1.19173359	     12.08689638	      2.86157757	     -0.19084781	      0.99855707	      0.00880295	    -13.33847976	    -18.33762585	    -17.22600092	    -11.36567053	      2.36151884	      8.32635303	     43.98331755	    -11.68005598	     26.54685247	     31.33231331	     -2.90967083	     -2.39001524	     11.03661651	      9.45817627	    -10.46230282	    -17.76248759	     -0.86613573	    -10.77210304	      3.32241463	     54.90963134	      1.71525300	    -12.93214705	     34.03355185	      8.67037322	     25.25780520	      3.23198100
      3.16000000	     -1.33665399	     12.30484604	      2.97051534	     -0.19040267	      0.99861971	      0.00876645	    -13.44834140	    -18.30931440	    -17.41144607	    -11.34646446	      2.36712334	      8.32528761	     43.26137661	    -11.07131022	     25.50348918	     29.88377006	     -0.94007375	     -1.63313506	     10.42043837	      9.97285292	    -10.31933603	    -18.65890561	     -0.96936904	    -10.70546419	      3.77748082	     54.53516905	      2.59827582	    -12.47209609	     31.90375555	      8.66917989	     25.27225505	      2.29973877
      3.17000000	     -1.36515121	     12.31070180	      2.74112603	     -0.19015765	      0.99894503	      0.00865997	    -13.31004422	    -18.60404096	    -17.10531706	    -11.66179211	      2.46605437	      8.48159013	     43.04442433	    -10.61677838	     25.16909928	     28.64564793	     -0.13021289	     -1.64261556	     10.29516986	     10.33451308	    -10.53340153	    -19.31982429	     -0.71521413	    -10.54885754	      4.00808175	     54.56880485	      3.11317953	    -12.49768693	     30.27679118	      8.90235551	     25.24403226	      2.32598776
      3.18000000	     -1.64319355	     12.72619782	      3.04391498	     -0.19007755	      0.99874605	      0.00871848	    -13.50788025	    -18.28289162	    -17.22902726	    -11.52323954	      2.93049707	      8.22590701	     41.61487912	    -10.13777454	     23.38917825	     26.91735759	      3.33675325	     -0.37934562	     10.17395072	     11.27185303	    -10.11906246	    -20.87254576	     -1.14977335	    -10.70292740	      4.87411265	     54.28148254	      4.10369445	    -12.12823169	     28.29059161	      9.00486645	     25.12510678	      1.24286834
